<svg width="24" height="20" viewBox="0 0 24 20" fill="none" xmlns="http://www.w3.org/2000/svg">
<path fill-rule="evenodd" clip-rule="evenodd" d="M18.6875 9.479C19.2858 9.479 19.7709 9.96403 19.7709 10.5623V13.2707H22.4792C23.0775 13.2707 23.5625 13.7557 23.5625 14.354C23.5625 14.9523 23.0775 15.4373 22.4792 15.4373H19.7709V18.1457C19.7709 18.744 19.2858 19.229 18.6875 19.229C18.0892 19.229 17.6042 18.744 17.6042 18.1457L17.6042 15.4373H14.8959C14.2976 15.4373 13.8125 14.9523 13.8125 14.354C13.8125 13.7557 14.2976 13.2707 14.8959 13.2707H17.6042L17.6042 10.5623C17.6042 9.96403 18.0892 9.479 18.6875 9.479Z" fill="#F79009"/>
<path d="M18.1127 0.139316C16.8792 -1.7494e-05 15.3146 -9.6484e-06 13.3224 1.64279e-07H9.96935C7.97709 -9.6484e-06 6.41245 -1.7494e-05 5.17898 0.139316C3.91997 0.281535 2.89902 0.578089 2.05036 1.24831C1.7963 1.44895 1.56075 1.67056 1.34658 1.91078C0.624887 2.72026 0.302612 3.70142 0.149107 4.90517C0.131445 5.04368 0.122613 5.11293 0.138498 5.17377C0.163883 5.271 0.2385 5.35573 0.331737 5.39322C0.390078 5.41667 0.463082 5.41667 0.60909 5.41667H22.6826C22.8286 5.41667 22.9016 5.41667 22.96 5.39321C23.0532 5.35573 23.1278 5.271 23.1532 5.17377C23.1691 5.11293 23.1603 5.04368 23.1426 4.90517C22.9891 3.70142 22.6668 2.72026 21.9451 1.91078C21.7309 1.67055 21.4954 1.44895 21.2413 1.24831C20.3927 0.578089 19.3717 0.281535 18.1127 0.139316Z" fill="#30B33D"/>
<path d="M22.4792 11.6458C22.8783 11.6458 23.0779 11.6458 23.1678 11.5719C23.1865 11.5566 23.1957 11.5474 23.2112 11.5288C23.2857 11.4393 23.2868 11.2775 23.2888 10.9539C23.2917 10.5082 23.2917 10.0361 23.2917 9.53631V9.42202C23.2917 8.79827 23.2917 8.21779 23.2861 7.67768C23.2831 7.37902 23.2815 7.22969 23.1865 7.13568C23.0916 7.04167 22.9411 7.04167 22.6402 7.04167H0.651507C0.350578 7.04167 0.200113 7.04167 0.10513 7.13568C0.0101459 7.22969 0.00861126 7.37902 0.00554197 7.67768C-8.64128e-06 8.21778 -4.33837e-06 8.79827 2.85719e-07 9.42198V9.5363C-1.4236e-05 11.404 -2.57343e-05 12.8838 0.149095 14.0532C0.302599 15.2569 0.624875 16.2381 1.34656 17.0476C1.56074 17.2878 1.79629 17.5094 2.05035 17.71C2.899 18.3802 3.91995 18.6768 5.17897 18.819C6.41244 18.9584 7.97707 18.9583 9.96933 18.9583H13.3223C14.0319 18.9583 14.6872 18.9583 15.2926 18.9521C15.6132 18.9487 15.7734 18.9471 15.8624 18.8728C15.8811 18.8572 15.8904 18.8478 15.9058 18.8289C15.9792 18.7392 15.9792 18.5414 15.9792 18.1458V17.7125C15.9792 17.4061 15.9792 17.2529 15.884 17.1577C15.7888 17.0625 15.6356 17.0625 15.3292 17.0625H14.8958C13.4001 17.0625 12.1875 15.8499 12.1875 14.3542C12.1875 12.8584 13.4001 11.6458 14.8958 11.6458H15.3292C15.6356 11.6458 15.7888 11.6458 15.884 11.5506C15.9792 11.4555 15.9792 11.3022 15.9792 10.9958V10.5625C15.9792 9.06673 17.1917 7.85417 18.6875 7.85417C20.1833 7.85417 21.3958 9.06673 21.3958 10.5625V10.9958C21.3958 11.3022 21.3958 11.4555 21.491 11.5506C21.5862 11.6458 21.7394 11.6458 22.0458 11.6458H22.4792Z" fill="#30B33D"/>
</svg>
