<svg width="16" height="26" viewBox="0 0 16 26" fill="none" xmlns="http://www.w3.org/2000/svg">
<path d="M0.850958 0.00415039C0.854698 0.773465 0.873615 1.22683 0.969296 1.61249C1.29293 2.91693 2.23635 3.93582 3.44417 4.28535C3.88925 4.41415 4.43174 4.41415 5.5167 4.41415H10.1834C11.2683 4.41415 11.8108 4.41415 12.2559 4.28535C13.4637 3.93582 14.4071 2.91693 14.7308 1.61249C14.8265 1.22683 14.8454 0.773465 14.8491 0.00415039M14.8491 25.2042C14.8454 24.4348 14.8265 23.9815 14.7308 23.5958C14.4071 22.2914 13.4637 21.2725 12.2559 20.923C11.8108 20.7942 11.2683 20.7942 10.1834 20.7942H5.5167C4.43174 20.7942 3.88925 20.7942 3.44417 20.923C2.23635 21.2725 1.29293 22.2914 0.969296 23.5958C0.873615 23.9815 0.854698 24.4348 0.850958 25.2042M5.5167 17.6442H10.1834C11.2683 17.6442 11.8108 17.6442 12.2559 17.5153C13.4637 17.1658 14.4071 16.1469 14.7308 14.8425C14.85 14.3618 14.85 13.7759 14.85 12.6042C14.85 11.4324 14.85 10.8465 14.7308 10.3658C14.4071 9.06137 13.4637 8.04248 12.2559 7.69295C11.8108 7.56415 11.2683 7.56415 10.1834 7.56415H5.5167C4.43174 7.56415 3.88925 7.56415 3.44417 7.69295C2.23635 8.04248 1.29293 9.06137 0.969296 10.3658C0.850037 10.8465 0.850037 11.4324 0.850037 12.6042C0.850037 13.7759 0.850037 14.3618 0.969296 14.8425C1.29293 16.1469 2.23635 17.1658 3.44417 17.5153C3.88925 17.6442 4.43174 17.6442 5.5167 17.6442Z" stroke="#C5C5C5" stroke-width="1.7"/>
</svg>
