<svg width="21" height="19" viewBox="0 0 21 19" fill="none" xmlns="http://www.w3.org/2000/svg">
<path d="M3.29324 17.3422L2.83925 18.2332H2.83925L3.29324 17.3422ZM1.45777 15.5068L2.34878 15.0528H2.34878L1.45777 15.5068ZM12.7068 17.3422L13.1608 18.2332V18.2332L12.7068 17.3422ZM14.5422 15.5068L13.6512 15.0528V15.0528L14.5422 15.5068ZM12.7068 1.45777L12.2528 2.34878L12.2528 2.34878L12.7068 1.45777ZM14.5422 3.29324L15.4332 2.83925V2.83925L14.5422 3.29324ZM3.29324 1.45777L2.83925 0.566766L3.29324 1.45777ZM1.45777 3.29324L0.566766 2.83925L1.45777 3.29324ZM13.9754 5.2486C14.0022 5.80023 14.4711 6.22566 15.0228 6.19882C15.5744 6.17198 15.9998 5.70304 15.973 5.1514L14.9742 5.2L13.9754 5.2486ZM15.973 13.6486C15.9998 13.097 15.5744 12.628 15.0228 12.6012C14.4711 12.5743 14.0022 12.9998 13.9754 13.5514L14.9742 13.6L15.973 13.6486ZM11.5 8.4C10.9477 8.4 10.5 8.84771 10.5 9.4C10.5 9.95228 10.9477 10.4 11.5 10.4V9.4V8.4ZM19.2 9.4L19.8332 10.174C20.0654 9.98403 20.2 9.69993 20.2 9.4C20.2 9.10007 20.0654 8.81597 19.8332 8.62604L19.2 9.4ZM17.2666 6.52604C16.8391 6.17631 16.2091 6.23932 15.8594 6.66676C15.5096 7.09421 15.5727 7.72423 16.0001 8.07396L16.6333 7.3L17.2666 6.52604ZM16.0001 10.726C15.5727 11.0758 15.5096 11.7058 15.8594 12.1332C16.2091 12.5607 16.8391 12.6237 17.2666 12.274L16.6333 11.5L16.0001 10.726ZM7.72 1V2H8.28V1V0H7.72V1ZM8.28 17.8V16.8H7.72V17.8V18.8H8.28V17.8ZM1 11.08H2V7.72H1H0V11.08H1ZM7.72 17.8V16.8C6.52739 16.8 5.69307 16.7992 5.04288 16.7461C4.40436 16.6939 4.03198 16.5963 3.74723 16.4512L3.29324 17.3422L2.83925 18.2332C3.45293 18.5459 4.11782 18.6772 4.88002 18.7395C5.63054 18.8008 6.56039 18.8 7.72 18.8V17.8ZM1 11.08H0C0 12.2396 -0.000777721 13.1695 0.0605426 13.92C0.122817 14.6822 0.254079 15.3471 0.566766 15.9608L1.45777 15.5068L2.34878 15.0528C2.20369 14.768 2.10607 14.3956 2.0539 13.7571C2.00078 13.1069 2 12.2726 2 11.08H1ZM3.29324 17.3422L3.74723 16.4512C3.14511 16.1444 2.65557 15.6549 2.34878 15.0528L1.45777 15.5068L0.566766 15.9608C1.06531 16.9392 1.86081 17.7347 2.83925 18.2332L3.29324 17.3422ZM8.28 17.8V18.8C9.43961 18.8 10.3695 18.8008 11.12 18.7395C11.8822 18.6772 12.5471 18.5459 13.1608 18.2332L12.7068 17.3422L12.2528 16.4512C11.968 16.5963 11.5956 16.6939 10.9571 16.7461C10.3069 16.7992 9.47261 16.8 8.28 16.8V17.8ZM14.5422 15.5068L13.6512 15.0528C13.3444 15.6549 12.8549 16.1444 12.2528 16.4512L12.7068 17.3422L13.1608 18.2332C14.1392 17.7347 14.9347 16.9392 15.4332 15.9608L14.5422 15.5068ZM8.28 1V2C9.47261 2 10.3069 2.00078 10.9571 2.0539C11.5956 2.10607 11.968 2.20369 12.2528 2.34878L12.7068 1.45777L13.1608 0.566766C12.5471 0.254079 11.8822 0.122817 11.12 0.0605426C10.3695 -0.000777721 9.43961 0 8.28 0V1ZM12.7068 1.45777L12.2528 2.34878C12.8549 2.65557 13.3444 3.14511 13.6512 3.74723L14.5422 3.29324L15.4332 2.83925C14.9347 1.86081 14.1392 1.06531 13.1608 0.566766L12.7068 1.45777ZM7.72 1V0C6.56039 0 5.63054 -0.000777721 4.88002 0.0605426C4.11782 0.122817 3.45293 0.254079 2.83925 0.566766L3.29324 1.45777L3.74723 2.34878C4.03198 2.20369 4.40436 2.10607 5.04288 2.0539C5.69307 2.00078 6.52739 2 7.72 2V1ZM1 7.72H2C2 6.52739 2.00078 5.69307 2.0539 5.04288C2.10607 4.40436 2.20369 4.03198 2.34878 3.74723L1.45777 3.29324L0.566766 2.83925C0.254079 3.45293 0.122817 4.11782 0.0605426 4.88002C-0.000777721 5.63054 0 6.56039 0 7.72H1ZM3.29324 1.45777L2.83925 0.566766C1.86081 1.06531 1.06531 1.86081 0.566766 2.83925L1.45777 3.29324L2.34878 3.74723C2.65557 3.14511 3.14511 2.65557 3.74723 2.34878L3.29324 1.45777ZM14.9742 5.2L15.973 5.1514C15.9275 4.21523 15.8017 3.56232 15.4332 2.83925L14.5422 3.29324L13.6512 3.74723C13.8472 4.13194 13.9379 4.47863 13.9754 5.2486L14.9742 5.2ZM14.9742 13.6L13.9754 13.5514C13.9379 14.3214 13.8472 14.6681 13.6512 15.0528L14.5422 15.5068L15.4332 15.9608C15.8017 15.2377 15.9275 14.5848 15.973 13.6486L14.9742 13.6ZM11.5 9.4V10.4H19.2V9.4V8.4H11.5V9.4ZM19.2 9.4L19.8332 8.62604L17.2666 6.52604L16.6333 7.3L16.0001 8.07396L18.5668 10.174L19.2 9.4ZM19.2 9.4L18.5668 8.62604L16.0001 10.726L16.6333 11.5L17.2666 12.274L19.8332 10.174L19.2 9.4Z" fill="#FF0000"/>
</svg>
