<svg width="25" height="18" viewBox="0 0 25 18" fill="none" xmlns="http://www.w3.org/2000/svg">
<path fill-rule="evenodd" clip-rule="evenodd" d="M8.72335e-07 2.1875C8.72335e-07 0.978833 0.980001 0 2.1875 0H22.3125C23.52 0 24.5 0.98 24.5 2.1875V5.71783C24.5001 5.87152 24.4597 6.02253 24.3829 6.15565C24.3061 6.28877 24.1956 6.39932 24.0625 6.47617C23.6629 6.70625 23.331 7.03757 23.1002 7.43676C22.8694 7.83595 22.7479 8.2889 22.7479 8.75C22.7479 9.2111 22.8694 9.66405 23.1002 10.0632C23.331 10.4624 23.6629 10.7937 24.0625 11.0238C24.1956 11.1007 24.3061 11.2112 24.3829 11.3443C24.4597 11.4775 24.5001 11.6285 24.5 11.7822V15.3125C24.5 16.52 23.52 17.5 22.3125 17.5H2.1875C1.60734 17.5 1.05094 17.2695 0.640705 16.8593C0.230469 16.4491 8.72335e-07 15.8927 8.72335e-07 15.3125V11.7822C-0.000215954 11.6286 0.0399915 11.4777 0.116583 11.3445C0.193175 11.2114 0.303452 11.1008 0.436334 11.0238C0.835924 10.7937 1.16783 10.4624 1.39861 10.0632C1.62939 9.66405 1.7509 9.2111 1.7509 8.75C1.7509 8.2889 1.62939 7.83595 1.39861 7.43676C1.16783 7.03757 0.835924 6.70625 0.436334 6.47617C0.303452 6.39917 0.193175 6.28856 0.116583 6.15545C0.0399915 6.02234 -0.000215954 5.87141 8.72335e-07 5.71783V2.1875ZM17.5 0.875C17.7321 0.875 17.9546 0.967187 18.1187 1.13128C18.2828 1.29538 18.375 1.51794 18.375 1.75V2.625C18.375 2.85706 18.2828 3.07962 18.1187 3.24372C17.9546 3.40781 17.7321 3.5 17.5 3.5C17.2679 3.5 17.0454 3.40781 16.8813 3.24372C16.7172 3.07962 16.625 2.85706 16.625 2.625V1.75C16.625 1.51794 16.7172 1.29538 16.8813 1.13128C17.0454 0.967187 17.2679 0.875 17.5 0.875ZM18.375 6.125C18.375 5.89294 18.2828 5.67038 18.1187 5.50628C17.9546 5.34219 17.7321 5.25 17.5 5.25C17.2679 5.25 17.0454 5.34219 16.8813 5.50628C16.7172 5.67038 16.625 5.89294 16.625 6.125V7C16.625 7.23206 16.7172 7.45462 16.8813 7.61872C17.0454 7.78281 17.2679 7.875 17.5 7.875C17.7321 7.875 17.9546 7.78281 18.1187 7.61872C18.2828 7.45462 18.375 7.23206 18.375 7V6.125ZM17.5 9.625C17.7321 9.625 17.9546 9.71719 18.1187 9.88128C18.2828 10.0454 18.375 10.2679 18.375 10.5V11.375C18.375 11.6071 18.2828 11.8296 18.1187 11.9937C17.9546 12.1578 17.7321 12.25 17.5 12.25C17.2679 12.25 17.0454 12.1578 16.8813 11.9937C16.7172 11.8296 16.625 11.6071 16.625 11.375V10.5C16.625 10.2679 16.7172 10.0454 16.8813 9.88128C17.0454 9.71719 17.2679 9.625 17.5 9.625ZM18.375 14.875C18.375 14.6429 18.2828 14.4204 18.1187 14.2563C17.9546 14.0922 17.7321 14 17.5 14C17.2679 14 17.0454 14.0922 16.8813 14.2563C16.7172 14.4204 16.625 14.6429 16.625 14.875V15.75C16.625 15.9821 16.7172 16.2046 16.8813 16.3687C17.0454 16.5328 17.2679 16.625 17.5 16.625C17.7321 16.625 17.9546 16.5328 18.1187 16.3687C18.2828 16.2046 18.375 15.9821 18.375 15.75V14.875ZM5.25 8.75C5.25 8.51794 5.34219 8.29538 5.50628 8.13128C5.67038 7.96719 5.89294 7.875 6.125 7.875H12.25C12.4821 7.875 12.7046 7.96719 12.8687 8.13128C13.0328 8.29538 13.125 8.51794 13.125 8.75C13.125 8.98206 13.0328 9.20462 12.8687 9.36872C12.7046 9.53281 12.4821 9.625 12.25 9.625H6.125C5.89294 9.625 5.67038 9.53281 5.50628 9.36872C5.34219 9.20462 5.25 8.98206 5.25 8.75ZM6.125 11.375C5.89294 11.375 5.67038 11.4672 5.50628 11.6313C5.34219 11.7954 5.25 12.0179 5.25 12.25C5.25 12.4821 5.34219 12.7046 5.50628 12.8687C5.67038 13.0328 5.89294 13.125 6.125 13.125H9.625C9.85707 13.125 10.0796 13.0328 10.2437 12.8687C10.4078 12.7046 10.5 12.4821 10.5 12.25C10.5 12.0179 10.4078 11.7954 10.2437 11.6313C10.0796 11.4672 9.85707 11.375 9.625 11.375H6.125Z" fill="#C5C5C5"/>
</svg>
