<svg width="26" height="26" viewBox="0 0 26 26" fill="none" xmlns="http://www.w3.org/2000/svg">
<path d="M22.75 3.25H3.24998C2.67534 3.25 2.12424 3.47827 1.71791 3.8846C1.31159 4.29093 1.08331 4.84203 1.08331 5.41667V8.66667H3.24998V5.41667H22.75V20.5833H15.1666V22.75H22.75C23.3246 22.75 23.8757 22.5217 24.282 22.1154C24.6884 21.7091 24.9166 21.158 24.9166 20.5833V5.41667C24.9166 4.84203 24.6884 4.29093 24.282 3.8846C23.8757 3.47827 23.3246 3.25 22.75 3.25ZM1.08331 19.5V22.75H4.33331C4.33331 21.888 3.9909 21.0614 3.38141 20.4519C2.77192 19.8424 1.94527 19.5 1.08331 19.5ZM1.08331 15.1667V17.3333C1.79464 17.3333 2.499 17.4734 3.15618 17.7457C3.81336 18.0179 4.41049 18.4169 4.91347 18.9198C5.41646 19.4228 5.81545 20.02 6.08766 20.6771C6.35987 21.3343 6.49998 22.0387 6.49998 22.75H8.66665C8.66665 20.7388 7.86769 18.8099 6.44554 17.3878C5.02339 15.9656 3.09454 15.1667 1.08331 15.1667ZM1.08331 10.8333V13C2.3637 13 3.63155 13.2522 4.81448 13.7422C5.9974 14.2322 7.07223 14.9503 7.9776 15.8557C8.88298 16.7611 9.60116 17.8359 10.0911 19.0188C10.5811 20.2018 10.8333 21.4696 10.8333 22.75H13C13 16.1633 7.65915 10.8333 1.08331 10.8333ZM11.9166 12.0142V14.1808L15.7083 16.25L19.5 14.1808V12.0142L15.7083 14.0833L11.9166 12.0142ZM15.7083 6.5L9.74998 9.75L15.7083 13L21.6666 9.75L15.7083 6.5Z" fill="#30B33D"/>
<path d="M1.08301 19.5C1.94496 19.5 2.77234 19.8427 3.38184 20.4521C3.99113 21.0616 4.33301 21.8882 4.33301 22.75H1.08301V19.5ZM1.08301 15.167C3.09416 15.167 5.02318 15.9656 6.44531 17.3877C7.86746 18.8098 8.66699 20.7388 8.66699 22.75H6.5C6.5 22.0387 6.3601 21.3339 6.08789 20.6768C5.81568 20.0197 5.41601 19.4228 4.91309 18.9199C4.41019 18.4171 3.81328 18.0183 3.15625 17.7461C2.49907 17.4739 1.79433 17.333 1.08301 17.333V15.167ZM1.08301 10.833C7.65884 10.833 13 16.1633 13 22.75H10.833C10.833 21.4696 10.5808 20.2015 10.0908 19.0186C9.60084 17.8358 8.88282 16.7607 7.97754 15.8555C7.0722 14.9502 5.99731 14.2321 4.81445 13.7422C3.63154 13.2522 2.36338 13 1.08301 13V10.833Z" fill="#F79009"/>
</svg>
