<svg width="18" height="18" viewBox="0 0 18 18" fill="none" xmlns="http://www.w3.org/2000/svg">
<path d="M4.82171 1.80974C4.91627 1.69689 4.96281 1.55146 4.95134 1.40467C4.93987 1.25789 4.87131 1.12145 4.76037 1.02465C4.64943 0.927852 4.50497 0.878407 4.35798 0.886931C4.211 0.895454 4.07321 0.961267 3.97421 1.07024L3.00521 2.18024C2.45575 2.80992 2.14514 3.61272 2.12771 4.44824L2.08496 6.48749C2.08188 6.63668 2.13818 6.78097 2.24149 6.88864C2.3448 6.99631 2.48665 7.05853 2.63583 7.06162C2.78502 7.0647 2.92932 7.00839 3.03699 6.90508C3.14466 6.80178 3.20688 6.65993 3.20996 6.51074L3.25196 4.47224C3.26399 3.90054 3.47664 3.35126 3.85271 2.92049L4.82171 1.80974Z" fill="#30B33D"/>
<path fill-rule="evenodd" clip-rule="evenodd" d="M4.67771 5.775C4.72808 4.9726 5.08235 4.21956 5.6684 3.66918C6.25446 3.11879 7.02824 2.81245 7.83221 2.8125H8.24996V2.25C8.24996 2.05109 8.32898 1.86032 8.46963 1.71967C8.61028 1.57902 8.80105 1.5 8.99996 1.5C9.19887 1.5 9.38964 1.57902 9.53029 1.71967C9.67094 1.86032 9.74996 2.05109 9.74996 2.25V2.8125H10.1677C10.9717 2.81245 11.7455 3.11879 12.3315 3.66918C12.9176 4.21956 13.2718 4.9726 13.3222 5.775L13.488 8.4255C13.552 9.43591 13.8913 10.4095 14.469 11.241C14.5885 11.4128 14.6615 11.6126 14.681 11.821C14.7004 12.0294 14.6656 12.2392 14.5799 12.4302C14.4942 12.6211 14.3605 12.7866 14.1919 12.9106C14.0233 13.0346 13.8255 13.1129 13.6177 13.1378L11.0625 13.4437V14.25C11.0625 14.797 10.8452 15.3216 10.4584 15.7084C10.0716 16.0952 9.54697 16.3125 8.99996 16.3125C8.45295 16.3125 7.92835 16.0952 7.54155 15.7084C7.15476 15.3216 6.93746 14.797 6.93746 14.25V13.4437L4.38221 13.137C4.17453 13.112 3.97684 13.0338 3.80835 12.9098C3.63985 12.7859 3.50628 12.6205 3.4206 12.4296C3.33493 12.2388 3.30007 12.0291 3.3194 11.8208C3.33874 11.6125 3.41162 11.4128 3.53096 11.241C4.10865 10.4095 4.44789 9.43591 4.51196 8.4255L4.67771 5.775ZM8.06246 14.25C8.06246 14.4986 8.16123 14.7371 8.33705 14.9129C8.51287 15.0887 8.75132 15.1875 8.99996 15.1875C9.2486 15.1875 9.48706 15.0887 9.66287 14.9129C9.83869 14.7371 9.93746 14.4986 9.93746 14.25V13.6875H8.06246V14.25Z" fill="#30B33D"/>
<path d="M13.2323 1.01628C13.1199 1.11436 13.0511 1.25305 13.041 1.40185C13.0308 1.55065 13.0802 1.69738 13.1783 1.80978L14.1473 2.91978C14.5232 3.35085 14.7356 3.90041 14.7473 4.47228L14.79 6.51003C14.7915 6.5839 14.8076 6.65674 14.8373 6.7244C14.867 6.79206 14.9097 6.85322 14.963 6.90437C15.0163 6.95552 15.0792 6.99568 15.148 7.02253C15.2168 7.04939 15.2903 7.06243 15.3641 7.0609C15.438 7.05938 15.5109 7.04331 15.5785 7.01364C15.6462 6.98396 15.7073 6.94124 15.7585 6.88793C15.8096 6.83462 15.8498 6.77175 15.8766 6.70292C15.9035 6.63409 15.9165 6.56065 15.915 6.48678L15.8723 4.44828C15.8548 3.61276 15.5442 2.80995 14.9948 2.18028L14.0258 1.07028C13.9277 0.957918 13.789 0.889111 13.6402 0.878985C13.4914 0.868858 13.3447 0.918242 13.2323 1.01628Z" fill="#30B33D"/>
</svg>
