<svg width="14" height="14" viewBox="0 0 14 14" fill="none" xmlns="http://www.w3.org/2000/svg">
<path d="M2.715 5.8425C3.795 7.965 5.535 9.6975 7.6575 10.785L9.3075 9.135C9.51 8.9325 9.81 8.865 10.0725 8.955C10.9125 9.2325 11.82 9.3825 12.75 9.3825C13.1625 9.3825 13.5 9.72 13.5 10.1325V12.75C13.5 13.1625 13.1625 13.5 12.75 13.5C5.7075 13.5 0 7.7925 0 0.75C0 0.3375 0.3375 0 0.75 0H3.375C3.7875 0 4.125 0.3375 4.125 0.75C4.125 1.6875 4.275 2.5875 4.5525 3.4275C4.635 3.69 4.575 3.9825 4.365 4.1925L2.715 5.8425Z" fill="#30B33D"/>
</svg>
