<svg width="28" height="28" viewBox="0 0 28 28" fill="none" xmlns="http://www.w3.org/2000/svg">
<path d="M5.83333 16.0586C5.83333 15.0494 5.83333 14.5449 6.05499 14.1142C6.27666 13.6834 6.68723 13.3902 7.50838 12.8036L12.8375 8.99709C13.3989 8.59613 13.6795 8.39565 14 8.39565C14.3205 8.39565 14.6011 8.59613 15.1625 8.99709L20.4916 12.8036C21.3128 13.3902 21.7233 13.6834 21.945 14.1142C22.1667 14.5449 22.1667 15.0494 22.1667 16.0586V22.5001C22.1667 23.4429 22.1667 23.9143 21.8738 24.2072C21.5809 24.5001 21.1095 24.5001 20.1667 24.5001H7.83333C6.89052 24.5001 6.41911 24.5001 6.12622 24.2072C5.83333 23.9143 5.83333 23.4429 5.83333 22.5001V16.0586Z" fill="#C5C5C5"/>
<path d="M3.5 14.5534C3.5 14.8202 3.5 14.9537 3.5841 14.9948C3.66819 15.0359 3.77352 14.954 3.98418 14.7902L12.7721 7.9551C13.362 7.49633 13.6569 7.26694 14 7.26694C14.3431 7.26694 14.638 7.49633 15.2279 7.9551L24.0158 14.7902C24.2265 14.954 24.3318 15.0359 24.4159 14.9948C24.5 14.9537 24.5 14.8202 24.5 14.5534V13.8116C24.5 13.3312 24.5 13.0911 24.3983 12.8831C24.2966 12.6752 24.107 12.5278 23.7279 12.2329L15.2279 5.62177C14.638 5.163 14.3431 4.93361 14 4.93361C13.6569 4.93361 13.362 5.163 12.7721 5.62177L4.27212 12.2329C3.89295 12.5278 3.70337 12.6752 3.60168 12.8831C3.5 13.0911 3.5 13.3312 3.5 13.8116V14.5534Z" fill="#C5C5C5"/>
<path d="M14.9167 17.5H13.0833C11.9788 17.5 11.0833 18.3954 11.0833 19.5V24.35C11.0833 24.4328 11.1505 24.5 11.2333 24.5H16.7667C16.8495 24.5 16.9167 24.4328 16.9167 24.35V19.5C16.9167 18.3954 16.0212 17.5 14.9167 17.5Z" fill="#ECECEC"/>
<rect x="18.6667" y="5.83325" width="2.33333" height="4.66667" rx="0.5" fill="#C5C5C5"/>
</svg>
