<svg width="20" height="20" viewBox="0 0 20 20" fill="none" xmlns="http://www.w3.org/2000/svg">
<path fill-rule="evenodd" clip-rule="evenodd" d="M4.16606 0.299734C7.77559 -0.0999115 11.4182 -0.0999115 15.0277 0.299734C17.0262 0.523734 18.6386 2.09757 18.8731 4.10307C19.3008 7.76406 19.3008 11.4624 18.8731 15.1234C18.6386 17.1289 17.0262 18.7027 15.0277 18.9267C11.4182 19.3264 7.77559 19.3264 4.16606 18.9267C2.16756 18.7027 0.555227 17.1289 0.320727 15.1234C-0.106909 11.4628 -0.106909 7.76484 0.320727 4.10423C0.439339 3.12992 0.883503 2.2242 1.58123 1.53389C2.27896 0.843569 3.18936 0.409102 4.16489 0.300901M9.59689 3.78807C9.82896 3.78807 10.0515 3.88025 10.2156 4.04435C10.3797 4.20844 10.4719 4.431 10.4719 4.66307V8.73823H14.5471C14.7791 8.73823 15.0017 8.83042 15.1658 8.99452C15.3299 9.15861 15.4221 9.38117 15.4221 9.61323C15.4221 9.8453 15.3299 10.0679 15.1658 10.232C15.0017 10.396 14.7791 10.4882 14.5471 10.4882H10.4719V14.5634C10.4719 14.7955 10.3797 15.018 10.2156 15.1821C10.0515 15.3462 9.82896 15.4384 9.59689 15.4384C9.36483 15.4384 9.14227 15.3462 8.97818 15.1821C8.81408 15.018 8.72189 14.7955 8.72189 14.5634V10.4882H4.64673C4.41466 10.4882 4.1921 10.396 4.02801 10.232C3.86391 10.0679 3.77173 9.8453 3.77173 9.61323C3.77173 9.38117 3.86391 9.15861 4.02801 8.99452C4.1921 8.83042 4.41466 8.73823 4.64673 8.73823H8.72189V4.66307C8.72189 4.431 8.81408 4.20844 8.97818 4.04435C9.14227 3.88025 9.36483 3.78807 9.59689 3.78807Z" fill="#C5C5C5"/>
</svg>
