<svg width="32" height="32" viewBox="0 0 32 32" fill="none" xmlns="http://www.w3.org/2000/svg">
<path d="M6.66669 18.0585C6.66669 17.0494 6.66669 16.5448 6.88835 16.1141C7.11002 15.6834 7.52059 15.3901 8.34173 14.8036L14.8375 10.1637C15.3989 9.76276 15.6796 9.56228 16 9.56228C16.3205 9.56228 16.6012 9.76276 17.1625 10.1637L23.6583 14.8036C24.4795 15.3901 24.89 15.6834 25.1117 16.1141C25.3334 16.5448 25.3334 17.0494 25.3334 18.0585V26C25.3334 26.9429 25.3334 27.4143 25.0405 27.7071C24.7476 28 24.2762 28 23.3334 28H8.66668C7.72388 28 7.25247 28 6.95958 27.7071C6.66669 27.4143 6.66669 26.9429 6.66669 26V18.0585Z" fill="#30B33D"/>
<path d="M4 16.72C4 16.9869 4 17.1203 4.0841 17.1614C4.16819 17.2026 4.27352 17.1206 4.48418 16.9568L14.7721 8.95506C15.362 8.49629 15.6569 8.2669 16 8.2669C16.3431 8.2669 16.638 8.49629 17.2279 8.95506L27.5158 16.9568C27.7265 17.1206 27.8318 17.2026 27.9159 17.1614C28 17.1203 28 16.9869 28 16.72V15.6449C28 15.1645 28 14.9243 27.8983 14.7164C27.7966 14.5085 27.607 14.3611 27.2279 14.0662L17.2279 6.28839C16.638 5.82962 16.3431 5.60024 16 5.60024C15.6569 5.60024 15.362 5.82962 14.7721 6.28839L4.77212 14.0662C4.39295 14.3611 4.20337 14.5085 4.10168 14.7164C4 14.9243 4 15.1645 4 15.6449V16.72Z" fill="#30B33D"/>
<path d="M17.3334 20H14.6667C13.5621 20 12.6667 20.8954 12.6667 22V27.85C12.6667 27.9328 12.7338 28 12.8167 28H19.1834C19.2662 28 19.3334 27.9328 19.3334 27.85V22C19.3334 20.8954 18.4379 20 17.3334 20Z" fill="#ECECEC"/>
<rect x="21.3333" y="6.66663" width="2.66667" height="5.33333" rx="0.5" fill="#30B33D"/>
</svg>
