<svg width="32" height="26" viewBox="0 0 32 26" fill="none" xmlns="http://www.w3.org/2000/svg">
<path d="M4.66667 6.66667C4.66667 4.89856 5.36905 3.20286 6.61929 1.95262C7.86953 0.702379 9.56522 0 11.3333 0C13.1014 0 14.7971 0.702379 16.0474 1.95262C17.2976 3.20286 18 4.89856 18 6.66667C18 8.43478 17.2976 10.1305 16.0474 11.3807C14.7971 12.631 13.1014 13.3333 11.3333 13.3333C9.56522 13.3333 7.86953 12.631 6.61929 11.3807C5.36905 10.1305 4.66667 8.43478 4.66667 6.66667ZM6.66667 16C4.89856 16 3.20286 16.7024 1.95262 17.9526C0.702379 19.2029 0 20.8986 0 22.6667L0 25.3333H22.6667V22.6667C22.6667 20.8986 21.9643 19.2029 20.714 17.9526C19.4638 16.7024 17.7681 16 16 16H6.66667ZM32 25.3333H25.3333V22.6667C25.3333 20.0547 24.2613 17.6933 22.5333 16H25.3333C26.2088 16 27.0757 16.1724 27.8846 16.5075C28.6934 16.8425 29.4283 17.3336 30.0474 17.9526C30.6664 18.5717 31.1575 19.3066 31.4925 20.1154C31.8276 20.9243 32 21.7912 32 22.6667V25.3333ZM20.6667 13.3333C19.8528 13.3337 19.0457 13.185 18.2853 12.8947C19.8222 11.1847 20.6706 8.96576 20.6667 6.66667C20.6702 4.3674 19.8213 2.14844 18.284 0.438667C19.1974 0.089863 20.1763 -0.0537637 21.1514 0.0179666C22.1265 0.0896968 23.0739 0.375028 23.9264 0.853737C24.7789 1.33245 25.5157 1.99281 26.0846 2.78803C26.6534 3.58325 27.0404 4.49386 27.218 5.45531C27.3957 6.41677 27.3597 7.40553 27.1126 8.35151C26.8655 9.2975 26.4133 10.1776 25.7882 10.9293C25.163 11.6811 24.3802 12.2861 23.4951 12.7016C22.61 13.117 21.6444 13.3327 20.6667 13.3333Z" fill="#30B33D"/>
</svg>
