<svg width="16" height="16" viewBox="0 0 16 16" fill="none" xmlns="http://www.w3.org/2000/svg">
<path d="M15.0176 5.47111L13.9232 1.82311C13.596 0.732445 12.6816 0 11.6472 0H4.3528C3.3184 0 2.404 0.732445 2.0768 1.82311L0.9824 5.47111C0.4056 5.73956 0 6.37244 0 7.11111V11.5556C0 12.2116 0.3232 12.7787 0.8 13.0871V14.1307V15.1111C0.8 15.6027 1.1576 16 1.6 16H2.4C2.8424 16 3.2 15.6027 3.2 15.1111V13.3333H12.8V15.1111C12.8 15.6027 13.1576 16 13.6 16H14.4C14.8424 16 15.2 15.6027 15.2 15.1111V13.0871C15.6768 12.7787 16 12.2124 16 11.5556V7.11111C16 6.37244 15.5944 5.73956 15.0176 5.47111ZM4.3528 1.77778H11.6464C11.9912 1.77778 12.2968 2.02133 12.4056 2.38578L13.2904 5.33333H12.6552H3.3448H2.7096L3.5936 2.38578C3.7032 2.02133 4.0088 1.77778 4.3528 1.77778ZM2.8 10.6667C2.1376 10.6667 1.6 10.0693 1.6 9.33333C1.6 8.59733 2.1376 8 2.8 8C3.4624 8 4 8.59733 4 9.33333C4 10.0693 3.4624 10.6667 2.8 10.6667ZM13.2 10.6667C12.5376 10.6667 12 10.0693 12 9.33333C12 8.59733 12.5376 8 13.2 8C13.8624 8 14.4 8.59733 14.4 9.33333C14.4 10.0693 13.8624 10.6667 13.2 10.6667Z" fill="#C5C5C5"/>
</svg>
